<svg width="21" height="30" viewBox="0 0 21 30" fill="none" xmlns="http://www.w3.org/2000/svg">
<mask id="path-1-outside-1_621_929" maskUnits="userSpaceOnUse" x="-0.131836" y="2.62787" width="21" height="26" fill="black">
<rect fill="white" x="-0.131836" y="2.62787" width="21" height="26"/>
<path d="M9.06685 14.4136V9.80647H6.76328V14.4136H9.06685ZM11.3704 21.3243H13.674V16.7172H11.3704V21.3243ZM9.06685 23.6279H4.45971V21.3243H2.15615V19.0207H6.76328V21.3243H9.06685V16.7172H4.45971V14.4136H2.15615V9.80647H4.45971V7.5029H9.06685V5.19934H11.3704V7.5029H15.9775V9.80647H18.2811V12.11H13.674V9.80647H11.3704V14.4136H15.9775V16.7172H18.2811V21.3243H15.9775V23.6279H11.3704V25.9314H9.06685V23.6279Z"/>
</mask>
<path d="M9.06685 14.4136V16.508H11.1612V14.4136H9.06685ZM9.06685 9.80647H11.1612V7.7121H9.06685V9.80647ZM6.76328 9.80647V7.7121H4.66891V9.80647H6.76328ZM6.76328 14.4136H4.66891V16.508H6.76328V14.4136ZM11.3704 21.3243H9.27604V23.4187H11.3704V21.3243ZM13.674 21.3243V23.4187H15.7684V21.3243H13.674ZM13.674 16.7172H15.7684V14.6228H13.674V16.7172ZM11.3704 16.7172V14.6228H9.27604V16.7172H11.3704ZM9.06685 23.6279H11.1612V21.5335H9.06685V23.6279ZM4.45971 23.6279H2.36534V25.7222H4.45971V23.6279ZM4.45971 21.3243H6.55409V19.2299H4.45971V21.3243ZM2.15615 21.3243H0.0617726V23.4187H2.15615V21.3243ZM2.15615 19.0207V16.9264H0.0617726V19.0207H2.15615ZM6.76328 19.0207H8.85766V16.9264H6.76328V19.0207ZM6.76328 21.3243H4.66891V23.4187H6.76328V21.3243ZM9.06685 21.3243V23.4187H11.1612V21.3243H9.06685ZM9.06685 16.7172H11.1612V14.6228H9.06685V16.7172ZM4.45971 16.7172H2.36534V18.8115H4.45971V16.7172ZM4.45971 14.4136H6.55409V12.3192H4.45971V14.4136ZM2.15615 14.4136H0.0617726V16.508H2.15615V14.4136ZM2.15615 9.80647V7.7121H0.0617726V9.80647H2.15615ZM4.45971 9.80647V11.9008H6.55409V9.80647H4.45971ZM4.45971 7.5029V5.40853H2.36534V7.5029H4.45971ZM9.06685 7.5029V9.59728H11.1612V7.5029H9.06685ZM9.06685 5.19934V3.10496H6.97247V5.19934H9.06685ZM11.3704 5.19934H13.4648V3.10496H11.3704V5.19934ZM11.3704 7.5029H9.27604V9.59728H11.3704V7.5029ZM15.9775 7.5029H18.0719V5.40853H15.9775V7.5029ZM15.9775 9.80647H13.8832V11.9008H15.9775V9.80647ZM18.2811 9.80647H20.3755V7.7121H18.2811V9.80647ZM18.2811 12.11V14.2044H20.3755V12.11H18.2811ZM13.674 12.11H11.5796V14.2044H13.674V12.11ZM13.674 9.80647H15.7684V7.7121H13.674V9.80647ZM11.3704 9.80647V7.7121H9.27604V9.80647H11.3704ZM11.3704 14.4136H9.27604V16.508H11.3704V14.4136ZM15.9775 14.4136H18.0719V12.3192H15.9775V14.4136ZM15.9775 16.7172H13.8832V18.8115H15.9775V16.7172ZM18.2811 16.7172H20.3755V14.6228H18.2811V16.7172ZM18.2811 21.3243V23.4187H20.3755V21.3243H18.2811ZM15.9775 21.3243V19.2299H13.8832V21.3243H15.9775ZM15.9775 23.6279V25.7222H18.0719V23.6279H15.9775ZM11.3704 23.6279V21.5335H9.27604V23.6279H11.3704ZM11.3704 25.9314V28.0258H13.4648V25.9314H11.3704ZM9.06685 25.9314H6.97247V28.0258H9.06685V25.9314ZM9.06685 14.4136H11.1612V9.80647H9.06685H6.97247V14.4136H9.06685ZM9.06685 9.80647V7.7121H6.76328V9.80647V11.9008H9.06685V9.80647ZM6.76328 9.80647H4.66891V14.4136H6.76328H8.85766V9.80647H6.76328ZM6.76328 14.4136V16.508H9.06685V14.4136V12.3192H6.76328V14.4136ZM11.3704 21.3243V23.4187H13.674V21.3243V19.2299H11.3704V21.3243ZM13.674 21.3243H15.7684V16.7172H13.674H11.5796V21.3243H13.674ZM13.674 16.7172V14.6228H11.3704V16.7172V18.8115H13.674V16.7172ZM11.3704 16.7172H9.27604V21.3243H11.3704H13.4648V16.7172H11.3704ZM9.06685 23.6279V21.5335H4.45971V23.6279V25.7222H9.06685V23.6279ZM4.45971 23.6279H6.55409V21.3243H4.45971H2.36534V23.6279H4.45971ZM4.45971 21.3243V19.2299H2.15615V21.3243V23.4187H4.45971V21.3243ZM2.15615 21.3243H4.25052V19.0207H2.15615H0.0617726V21.3243H2.15615ZM2.15615 19.0207V21.1151H6.76328V19.0207V16.9264H2.15615V19.0207ZM6.76328 19.0207H4.66891V21.3243H6.76328H8.85766V19.0207H6.76328ZM6.76328 21.3243V23.4187H9.06685V21.3243V19.2299H6.76328V21.3243ZM9.06685 21.3243H11.1612V16.7172H9.06685H6.97247V21.3243H9.06685ZM9.06685 16.7172V14.6228H4.45971V16.7172V18.8115H9.06685V16.7172ZM4.45971 16.7172H6.55409V14.4136H4.45971H2.36534V16.7172H4.45971ZM4.45971 14.4136V12.3192H2.15615V14.4136V16.508H4.45971V14.4136ZM2.15615 14.4136H4.25052V9.80647H2.15615H0.0617726V14.4136H2.15615ZM2.15615 9.80647V11.9008H4.45971V9.80647V7.7121H2.15615V9.80647ZM4.45971 9.80647H6.55409V7.5029H4.45971H2.36534V9.80647H4.45971ZM4.45971 7.5029V9.59728H9.06685V7.5029V5.40853H4.45971V7.5029ZM9.06685 7.5029H11.1612V5.19934H9.06685H6.97247V7.5029H9.06685ZM9.06685 5.19934V7.29371H11.3704V5.19934V3.10496H9.06685V5.19934ZM11.3704 5.19934H9.27604V7.5029H11.3704H13.4648V5.19934H11.3704ZM11.3704 7.5029V9.59728H15.9775V7.5029V5.40853H11.3704V7.5029ZM15.9775 7.5029H13.8832V9.80647H15.9775H18.0719V7.5029H15.9775ZM15.9775 9.80647V11.9008H18.2811V9.80647V7.7121H15.9775V9.80647ZM18.2811 9.80647H16.1867V12.11H18.2811H20.3755V9.80647H18.2811ZM18.2811 12.11V10.0157H13.674V12.11V14.2044H18.2811V12.11ZM13.674 12.11H15.7684V9.80647H13.674H11.5796V12.11H13.674ZM13.674 9.80647V7.7121H11.3704V9.80647V11.9008H13.674V9.80647ZM11.3704 9.80647H9.27604V14.4136H11.3704H13.4648V9.80647H11.3704ZM11.3704 14.4136V16.508H15.9775V14.4136V12.3192H11.3704V14.4136ZM15.9775 14.4136H13.8832V16.7172H15.9775H18.0719V14.4136H15.9775ZM15.9775 16.7172V18.8115H18.2811V16.7172V14.6228H15.9775V16.7172ZM18.2811 16.7172H16.1867V21.3243H18.2811H20.3755V16.7172H18.2811ZM18.2811 21.3243V19.2299H15.9775V21.3243V23.4187H18.2811V21.3243ZM15.9775 21.3243H13.8832V23.6279H15.9775H18.0719V21.3243H15.9775ZM15.9775 23.6279V21.5335H11.3704V23.6279V25.7222H15.9775V23.6279ZM11.3704 23.6279H9.27604V25.9314H11.3704H13.4648V23.6279H11.3704ZM11.3704 25.9314V23.8371H9.06685V25.9314V28.0258H11.3704V25.9314ZM9.06685 25.9314H11.1612V23.6279H9.06685H6.97247V25.9314H9.06685Z" fill="#7DFFCF" mask="url(#path-1-outside-1_621_929)"/>
</svg>
