<svg width="35" height="34" viewBox="0 0 35 34" fill="none" xmlns="http://www.w3.org/2000/svg">
<path d="M17.4121 0.599487C14.1178 0.599487 10.8975 1.57636 8.1584 3.40657C5.41929 5.23678 3.28442 7.83813 2.02375 10.8817C0.763076 13.9252 0.433227 17.2742 1.07591 20.5052C1.7186 23.7362 3.30495 26.7041 5.63437 29.0335C7.96379 31.3629 10.9316 32.9493 14.1626 33.5919C17.3936 34.2346 20.7427 33.9048 23.7862 32.6441C26.8297 31.3834 29.4311 29.2486 31.2613 26.5095C33.0915 23.7703 34.0684 20.55 34.0684 17.2557C34.0637 12.8397 32.3074 8.60578 29.1847 5.48314C26.0621 2.3605 21.8282 0.604151 17.4121 0.599487ZM26.3809 18.537H17.4121C17.0723 18.537 16.7464 18.402 16.5061 18.1617C16.2659 17.9214 16.1309 17.5955 16.1309 17.2557V8.28699C16.1309 7.94718 16.2659 7.62129 16.5061 7.38101C16.7464 7.14073 17.0723 7.00574 17.4121 7.00574C17.7519 7.00574 18.0778 7.14073 18.3181 7.38101C18.5584 7.62129 18.6934 7.94718 18.6934 8.28699V15.9745H26.3809C26.7207 15.9745 27.0466 16.1095 27.2868 16.3498C27.5271 16.59 27.6621 16.9159 27.6621 17.2557C27.6621 17.5955 27.5271 17.9214 27.2868 18.1617C27.0466 18.402 26.7207 18.537 26.3809 18.537Z" fill="#7DFFCF"/>
</svg>
