<svg width="41" height="30" viewBox="0 0 41 30" fill="none" xmlns="http://www.w3.org/2000/svg">
<path d="M39.1501 10.5371C39.5281 10.5371 39.8906 10.387 40.1578 10.1197C40.4251 9.85247 40.5752 9.49001 40.5752 9.11206V3.41187C40.5752 2.65597 40.2749 1.93104 39.7404 1.39654C39.2059 0.862045 38.481 0.561768 37.7251 0.561768H3.52393C2.76803 0.561768 2.0431 0.862045 1.5086 1.39654C0.974105 1.93104 0.673828 2.65597 0.673828 3.41187V9.11206C0.673828 9.49001 0.823967 9.85247 1.09122 10.1197C1.35846 10.387 1.72093 10.5371 2.09888 10.5371C3.23272 10.5371 4.32012 10.9875 5.12186 11.7893C5.92361 12.591 6.37402 13.6784 6.37402 14.8123C6.37402 15.9461 5.92361 17.0335 5.12186 17.8352C4.32012 18.637 3.23272 19.0874 2.09888 19.0874C1.72093 19.0874 1.35846 19.2375 1.09122 19.5048C0.823967 19.772 0.673828 20.1345 0.673828 20.5125V26.2126C0.673828 26.9685 0.974105 27.6935 1.5086 28.228C2.0431 28.7625 2.76803 29.0627 3.52393 29.0627H37.7251C38.481 29.0627 39.2059 28.7625 39.7404 28.228C40.2749 27.6935 40.5752 26.9685 40.5752 26.2126V20.5125C40.5752 20.1345 40.4251 19.772 40.1578 19.5048C39.8906 19.2375 39.5281 19.0874 39.1501 19.0874C38.0163 19.0874 36.9289 18.637 36.1272 17.8352C35.3254 17.0335 34.875 15.9461 34.875 14.8123C34.875 13.6784 35.3254 12.591 36.1272 11.7893C36.9289 10.9875 38.0163 10.5371 39.1501 10.5371ZM3.52393 21.795C5.13464 21.4679 6.58276 20.5941 7.6229 19.3215C8.66305 18.0489 9.23126 16.4558 9.23126 14.8123C9.23126 13.1687 8.66305 11.5756 7.6229 10.303C6.58276 9.03045 5.13464 8.15659 3.52393 7.82952V3.41187H13.4993V26.2126H3.52393V21.795Z" fill="#7DFFCF"/>
</svg>
