<svg width="662" height="302" viewBox="0 0 662 302" fill="none" xmlns="http://www.w3.org/2000/svg">
<path d="M193.262 0.5L201.117 9.82227L201.268 10H461.719L461.866 9.84375L470.715 0.5H661.5V301H0.5V88.7002L16.1836 72.3457L16.3232 72.2012V0.5H193.262Z" fill="black" fill-opacity="0.75" stroke="#383838"/>
<path d="M660 5.5H504.5" stroke="white" stroke-opacity="0.1"/>
<path d="M163 5.5H17.5" stroke="white" stroke-opacity="0.1"/>
<mask id="mask0_339_5580" style="mask-type:alpha" maskUnits="userSpaceOnUse" x="0" y="34" width="11" height="45">
<path d="M10.9136 42.0381L10.9136 34L0.86084 44.0518L0.860841 51.9102L10.9136 42.0381ZM10.9136 51.0381L10.9136 43L0.860841 53.0518L0.860841 60.9102L10.9136 51.0381ZM10.9136 60.0381L10.9136 52L0.860841 62.0518L0.860841 69.9102L10.9136 60.0381ZM0.860842 78.9102L10.9136 69.0381L10.9136 61L0.860841 71.0518L0.860842 78.9102Z" fill="#7DFFCF"/>
</mask>
<g mask="url(#mask0_339_5580)">
<rect width="116" height="26" transform="matrix(4.37114e-08 1 1 -4.37114e-08 -7.06787 35)" fill="url(#paint0_linear_339_5580)"/>
</g>
<defs>
<linearGradient id="paint0_linear_339_5580" x1="0" y1="13" x2="116" y2="13" gradientUnits="userSpaceOnUse">
<stop offset="0.105769" stop-color="white" stop-opacity="0.2"/>
<stop offset="0.519231" stop-color="white" stop-opacity="0.2"/>
<stop offset="0.519331" stop-color="#1BFF8B"/>
</linearGradient>
</defs>
</svg>
